<?xml version="1.0" standalone="no"?>
<!DOCTYPE svg PUBLIC "-//W3C//DTD SVG 1.1//EN" "http://www.w3.org/Graphics/SVG/1.1/DTD/svg11.dtd" >
<svg xmlns="http://www.w3.org/2000/svg">
<metadata></metadata>
<defs>
<font id="breezi_icon_setregular" horiz-adv-x="1606" >
<font-face units-per-em="2048" ascent="1638" descent="-410" />
<missing-glyph horiz-adv-x="500" />
<glyph horiz-adv-x="0" />
<glyph unicode="&#xd;" horiz-adv-x="2048" />
<glyph unicode="+" horiz-adv-x="1596" d="M18 1048q0 58 41 99t99 41h296q22 -68 78 -113t126 -53v666q0 58 41 99t99 41t99 -41t41 -99v-500h500q58 0 99 -41t41 -99t-40 -98q-42 -42 -100 -42h-500v-500q0 -58 -41 -99t-99 -41t-99 41t-41 99v500h-500q-58 0 -99 41t-41 99z" />
<glyph unicode="-" d="M121 1048q0 58 41 99t97 41h1088q58 0 98 -41t40 -99t-41 -99t-97 -41h-1088q-56 0 -97 41t-41 99z" />
<glyph unicode="&#x3c;" horiz-adv-x="1174" d="M14 1048l108 108l618 618q54 54 130 54t130 -54t54 -130t-54 -130l-616 -614q70 -40 152 -42t154 34l310 -310q54 -54 54 -130t-54 -130t-130 -54q-74 0 -128 52z" />
<glyph unicode="&#x3e;" horiz-adv-x="1174" d="M120 452q0 76 54 130l310 310q72 -36 154 -34t152 42l-616 614q-54 54 -54 130t54 130t130 54t130 -54l618 -618l108 -108l-728 -728q-54 -52 -128 -52q-76 0 -130 54t-54 130z" />
<glyph unicode="A" horiz-adv-x="1552" d="M69 1514q52 14 88 50l12 12l-66 66q10 12 14 16l84 84q38 38 93 38t91 -38l246 -246q38 -38 38 -92t-38 -90l-84 -86q-24 -22 -56 -32q66 -154 185 -273t273 -185q8 32 32 56l84 84q38 38 93 38t91 -38l246 -246q38 -38 38 -92t-38 -92l-84 -84q-4 -4 -16 -14l-82 84 l-14 -14q-42 -44 -54 -104q-234 8 -444 100t-376 256q-168 168 -260 385t-96 457z" />
<glyph unicode="B" horiz-adv-x="1716" d="M78 766v3v3q2 212 106 390t283 282t391 104t391 -104t283 -282t106 -390v-3v-3h-2q-2 -38 -30 -65t-66 -27h-438v2l300 382q36 45 36 99v11q-4 60 -48 100q-39 33 -94 33h-9q-61 -3 -105 -45l-352 -346q-90 -10 -152 -77t-64 -159h-438q-38 0 -66 27t-30 65h-2zM262 882 l196 -26l18 126l-198 26zM394 1240l140 -140l90 88l-140 140zM738 670q0 48 34 83t84 37q106 104 328 324q18 16 40 18t37 -11t15 -35t-16 -40q-42 -54 -90 -115t-105 -133t-89 -114q0 -2 1 -7t1 -7q0 -50 -35 -86t-85 -36t-85 36t-35 86zM794 1260h128v198h-128v-198z" />
<glyph unicode="C" horiz-adv-x="1809" d="M125 364v1270q0 40 28 68t70 28h118v-224q0 -74 52 -126t126 -52t125 52t51 126v224h420v-224q0 -74 51 -126t125 -52t126 52t52 126v224h118q42 0 70 -28t28 -68v-1122q-16 -102 -96 -172t-186 -72h-1182q-40 0 -68 29t-28 67zM389 528h426v132h-200v2l56 44 q134 110 134 222q0 86 -57 136t-155 50q-118 0 -200 -60l44 -114q64 46 124 46q42 0 64 -19t22 -53q-2 -40 -42 -88t-136 -130l-80 -70v-98zM439 1506v242q0 34 23 57t56 23t57 -23t24 -57v-242q0 -34 -24 -57t-57 -23t-56 23t-23 57zM993 974h256v-2l-232 -444h170l232 478 v98h-426v-130zM1211 1506v242q0 34 24 57t57 23t56 -23t23 -57v-242q0 -34 -23 -57t-56 -23t-57 23t-24 57z" />
<glyph unicode="D" horiz-adv-x="1803" d="M76 662q0 32 24 56t56 24h244q32 0 55 -24t23 -56t-23 -56t-55 -24h-244q-32 0 -56 24t-24 56zM76 1434q0 32 24 56t56 24h244q32 0 55 -24t23 -56t-23 -56t-55 -24h-244q-32 0 -56 24t-24 56zM310 366v118h90q72 0 124 52t52 126t-52 126t-124 52h-90v418h90 q72 0 124 51t52 125t-52 126t-124 52h-90v118q0 40 29 69t69 29h1170q40 0 69 -29t29 -69v-1364q0 -40 -29 -69t-69 -29h-1170q-40 0 -69 29t-29 69zM748 734h498v146h-498v-146zM748 1098h684v148h-684v-148zM748 1464h684v148h-684v-148z" />
<glyph unicode="E" horiz-adv-x="1784" d="M64 1000v96q0 42 29 70t69 28h114q24 100 76 186l-80 80q-28 30 -28 70t28 68l70 70q28 28 68 28t70 -28l80 -80q86 52 186 76v114q0 40 29 69t69 29h96q40 0 69 -29t29 -69v-114q98 -24 186 -76l80 80q30 28 70 28t68 -28l70 -70q28 -28 28 -68t-28 -70l-80 -80 q52 -86 76 -186h114q40 0 69 -29t29 -69v-96q0 -42 -29 -70t-69 -28h-114q-24 -98 -76 -186l80 -80q28 -30 28 -70t-28 -68l-70 -70q-28 -28 -68 -28t-70 28l-80 80q-88 -52 -186 -76v-114q0 -40 -29 -69t-69 -29h-96q-40 0 -69 29t-29 69v114q-100 24 -186 76l-80 -80 q-30 -28 -70 -28t-68 28l-70 70q-28 28 -28 68t28 70l80 80q-52 86 -76 186h-114q-40 0 -69 29t-29 69zM696 1048q0 -80 58 -138t138 -58t138 58t58 138t-58 138t-138 58t-138 -58t-58 -138z" />
<glyph unicode="F" horiz-adv-x="1670" d="M125 456v728v94v362q0 38 27 64t65 26h638q38 0 72 -25t44 -63l52 -182h-532q-122 0 -204 -90h1206q38 0 65 -27t27 -65v-822q0 -36 -27 -63t-65 -27h-1276q-38 0 -65 27t-27 63z" />
<glyph unicode="G" horiz-adv-x="1565" d="M57 1694q0 26 11 51q22 51 73 73l51 11q26 0 51 -11q51 -22 73 -72l30 -72q90 34 186 34q124 0 360 -76q224 -70 332 -70q124 0 226 66q26 14 51 0t25 -42v-590q0 -22 -18 -38q-176 -146 -420 -146q-70 0 -204 14l-120 288q-34 78 -104 125t-154 51q0 -2 1 -4l1 -2 l348 -836q8 -24 8 -47q0 -28 -11 -54q-21 -49 -71 -69q-24 -10 -52 -10q-40 0 -74 22t-50 60l-538 1292q-11 26 -11 52z" />
<glyph unicode="H" horiz-adv-x="1600" d="M56 1456q0 154 109 263t263 109q148 0 258 -106l-112 -162l-42 -60q-48 -72 -48 -152v-6q2 -84 52 -152l336 486h2q50 70 129 111t169 41q154 0 263 -109t109 -263q0 -124 -78 -226l-214 -310l-452 -652l-452 652l-222 320q-70 98 -70 216z" />
<glyph unicode="I" horiz-adv-x="1622" d="M26 809q0 31 33 63l920 920q36 36 91 36t91 -36l260 -260q-50 -24 -80 -54l-304 -304q-72 -76 -88 -179q-4 -27 -4 -54q0 -73 32 -139l4 2l516 518q26 24 61 24q11 0 23 -2q6 -24 6 -32q0 -54 -38 -92l-918 -920q-34 -32 -66 -32q-26 0 -44 20q-20 22 -20 62v8l26 376 q2 16 -7 25t-25 9l-378 -24h-2q-66 0 -84 40q-5 12 -5 25z" />
<glyph unicode="J" horiz-adv-x="1839" d="M76 980q0 182 129 311t309 129q24 0 46 -2q56 126 172 203t256 77q192 0 330 -137t138 -331q0 -16 -2 -32h6q134 0 230 -95q98 -97 98 -235q0 -134 -96 -231t-232 -97h-300q-2 2 -8 11t-10 13l-372 372q-72 70 -178 70t-178 -70l-236 -236q-102 124 -102 280zM164 342 q0 -44 31 -75t76 -31t75 30l246 246l246 -246q32 -30 76 -30t75 31t31 75t-30 76l-322 322q-32 30 -76 30t-76 -30l-322 -322q-30 -32 -30 -76z" />
<glyph unicode="K" horiz-adv-x="1344" d="M86 374v780q0 40 29 69t69 29h146v244q0 140 100 240t241 100t242 -100t101 -240h-186q0 64 -46 109t-110 45t-110 -45t-46 -109v-244h644q40 0 69 -29t29 -69v-780q0 -40 -29 -69t-69 -29h-976q-40 0 -69 29t-29 69zM574 536h196v194h-196v-194z" />
<glyph unicode="L" horiz-adv-x="1638" d="M39 609q0 -141 100 -241t241 -100t241 100l218 218l-28 28q-50 48 -118 48t-118 -46l-102 -102q-38 -38 -93 -38t-94 39t-39 94t38 95l246 244l-148 146l-244 -244q-100 -100 -100 -241zM415 1328l246 -248l126 124l-248 248zM799 1510l218 218q100 100 241 100t241 -100 t100 -241t-100 -241l-244 -244l-148 146l246 244q38 40 38 95t-39 94t-94 39t-93 -38l-104 -102q-48 -46 -116 -46t-118 48zM851 892l248 -248l124 124l-248 248z" />
<glyph unicode="M" horiz-adv-x="1757" d="M98 396v974q0 52 46 82l-2 2l14 6h2l72 38l48 24l204 102l308 156q36 18 87 18t87 -18l562 -282l72 -38h2l12 -6l-2 -2q48 -30 48 -82v-974q0 -40 -29 -69t-69 -29h-1364q-42 0 -70 29t-28 69zM168 1190q0 -62 60 -92l306 -160l-244 -412q-12 -18 6 -32q6 -4 14 -4 q12 0 18 8l336 372l138 -72q34 -18 76 -18t76 18l128 66l330 -366q8 -8 18 -8q8 0 14 4q18 14 8 32l-242 406l318 166q60 30 60 92q0 28 -16 54h-1390q-14 -26 -14 -54z" />
<glyph unicode="N" horiz-adv-x="814" d="M13 852v392q0 40 29 69t69 29h254l330 292v-1172l-330 292v266q-76 -24 -126 -89t-50 -147v-30h-78q-40 0 -69 29t-29 69z" />
<glyph unicode="O" horiz-adv-x="1414" d="M48 852v392q0 40 29 69t69 29h254l330 292v-1172l-330 292v266q-76 -24 -126 -89t-50 -147v-30h-78q-40 0 -69 29t-29 69zM816 834q0 -30 21 -52t52 -22t51 22q118 118 118 285t-118 285q-20 20 -51 20t-52 -21t-21 -51t22 -52q74 -76 74 -182t-74 -180q-22 -22 -22 -52z M1010 642q0 -30 21 -51t52 -21t51 20q198 198 198 477t-198 475q-20 22 -51 22t-52 -22t-21 -52t22 -52q154 -154 154 -372t-154 -372q-22 -22 -22 -52z" />
<glyph unicode="P" horiz-adv-x="1690" d="M40 870v392q0 40 29 69t69 29h254l330 294v-1174l-330 292v266q-76 -24 -126 -89t-50 -147v-30h-78q-40 0 -69 29t-29 69zM808 815q0 31 22 51q74 76 74 182t-74 182q-22 20 -22 51t21 52t52 21t51 -22q118 -118 118 -284t-118 -284q-20 -22 -51 -22t-52 21t-21 52z M1002 624q0 30 22 52q154 154 154 372t-154 372q-22 22 -22 52t21 52t52 22t51 -22q198 -198 198 -476t-198 -476q-20 -22 -51 -22t-52 22t-21 52zM1194 432q0 30 22 52q112 112 173 258t61 306t-61 305t-173 259q-22 22 -22 52t21 51t52 21t51 -20q134 -134 206 -306 t72 -362t-72 -362t-206 -306q-20 -20 -51 -20t-52 21t-21 51z" />
<glyph unicode="Q" horiz-adv-x="1619" d="M113 528v1172q0 40 28 68t67 28t67 -28t28 -68v-1156v-18q0 -10 7 -18t17 -8h1186q-16 -86 -85 -143t-157 -57h-910q-96 0 -168 66t-80 162zM463 748v250q0 50 35 85t85 35t85 -35t35 -85v-250q0 -48 -35 -84t-85 -36t-85 36t-35 84zM869 748v540q0 50 35 85t85 35 t85 -35t35 -85v-540q0 -48 -35 -84t-85 -36t-85 36t-35 84zM1273 748v928q0 50 35 85t85 35t85 -35t35 -85v-928q0 -48 -35 -84t-85 -36t-85 36t-35 84z" />
<glyph unicode="R" horiz-adv-x="1434" d="M59 928q0 160 74 300q81 154 227 249t324 103l-36 34q-36 38 -36 89t37 88t88 37t89 -36l246 -246v-2q38 -36 38 -88t-38 -88v-2l-246 -246q-38 -36 -89 -36t-88 37t-37 88t36 89l30 28q-160 -14 -267 -136q-102 -115 -102 -265q1 -9 1 -17q8 -168 132 -282 q117 -107 272 -107h19q167 7 281 131q108 117 108 275v17v312q104 -10 176 -87t74 -183v-38v-35q0 -155 -74 -293q-82 -154 -229 -248t-325 -102h-28q-262 0 -453 182t-203 446q-1 16 -1 32z" />
<glyph unicode="S" horiz-adv-x="1726" d="M89 364v684l694 -204v-178h160v178l694 204v-684q0 -40 -29 -68t-67 -28h-1356q-38 0 -67 28t-29 68zM89 1138v194q0 40 29 68t67 28h252v216q0 76 54 130t130 54h484q76 0 130 -54t54 -130v-216h252q38 0 67 -28t29 -68v-194l-774 -226zM611 1428h504v216q0 10 -10 10 h-484q-10 0 -10 -10v-216z" />
<glyph unicode="T" horiz-adv-x="1714" d="M90 746v108v878q0 40 29 69t69 29h1364q40 0 69 -29t29 -69v-854v-132q0 -40 -29 -69t-69 -29h-596l-338 -338q-45 -45 -79 -45q-10 0 -19 4q-40 17 -40 97v572q-86 -32 -141 -107t-55 -167v-16h-96q-40 0 -69 29t-29 69z" />
<glyph unicode="V" horiz-adv-x="1690" d="M65 1048q100 208 311 333t468 125t469 -125t312 -333q-100 -208 -312 -333t-469 -125t-468 125t-311 333zM553 1048q0 -122 85 -207t207 -85t207 85t85 207q0 88 -48 162l-192 -194q-2 0 -4 -2q-26 54 -26 115q0 22 3 45q13 86 71 148h2q-52 18 -98 18q-122 0 -207 -85 t-85 -207z" />
<glyph unicode="X" horiz-adv-x="1683" d="M21 982q0 88 62 150t150 62t152 -62l204 -204h2l192 -194q22 51 22 104q0 23 -4 47q-14 79 -72 137l-22 22l150 152l424 424q62 62 151 62t151 -62t62 -150t-62 -152l-842 -842q-62 -62 -151 -62t-153 62l-354 356q-62 62 -62 150z" />
<glyph unicode="Y" horiz-adv-x="1677" d="M53 1038v576q0 60 42 102t100 42h118v-44q0 -100 51 -185t137 -133v-500h-306q-58 0 -100 42t-42 100zM191 1127q0 -41 29 -71t71 -30t71 30t29 71t-29 71t-71 30t-71 -30t-29 -71zM599 1078v412q0 110 78 188t188 80h334q108 0 202 -76t118 -184l88 -428q7 -29 7 -56 q0 -71 -46 -127q-63 -77 -171 -77l-294 2l40 -182q6 -26 6 -52q0 -63 -36 -119q-50 -79 -142 -99l-94 -22l-80 352q-24 116 -116 196v2q-82 78 -82 190z" />
<glyph unicode="a" horiz-adv-x="1558" d="M55 821q0 229 160 391l18 16l366 368l116 114q118 118 284 118t284 -117t118 -284t-118 -283l-74 -74v-2q0 -2 -2 -2l-422 -422q-72 -74 -176 -74t-177 74q-74 75 -74 180q0 101 73 174l364 364q30 30 71 30t70 -29t29 -70t-30 -71l-364 -364q-16 -14 -16 -36t16 -38 t38 -16t36 16l36 36l2 2l460 460q60 60 60 145t-60 144t-144 59t-144 -58l-116 -116l-368 -368l-16 -16q-104 -104 -104 -251t104 -251t251 -104t251 102l262 262l52 52q68 68 162 83q25 4 50 4q66 0 124 -29l-510 -510q-162 -162 -391 -162t-390 162t-161 391z" />
<glyph unicode="b" horiz-adv-x="1099" d="M25 1364q0 83 32 167q69 179 245 257q94 41 188 41q83 0 167 -32q179 -69 257 -245q41 -92 41 -186q0 -84 -33 -169q-70 -179 -245 -257q-93 -41 -186 -41q-83 0 -168 33q-179 70 -257 245q-41 93 -41 187zM556 774q94 6 176 42l2 1l2 1q33 14 67 14q31 0 62 -12 q65 -24 97 -86l96 -216q16 -36 16 -73q0 -32 -12 -64q-26 -69 -94 -99q-35 -15 -71 -15l-65 13q-68 26 -98 94z" />
<glyph unicode="c" horiz-adv-x="1708" d="M74 1048q0 212 104 392t284 284t392 104t392 -104t284 -284t104 -392t-104 -392t-284 -284t-392 -104t-392 104t-284 284t-104 392zM756 1050q0 -40 29 -69t69 -29t69 29t29 69v584q0 40 -29 68t-69 28t-69 -28t-29 -68v-584zM1000 1146q12 -118 118 -196h224q40 0 69 29 t29 69t-29 69t-69 29h-342z" />
<glyph unicode="d" horiz-adv-x="1586" d="M95 542v1200q0 36 25 61t61 25h1028q36 0 61 -25t25 -61v-1200q0 -36 -25 -61t-61 -25h-1028q-36 0 -61 25t-25 61zM257 656h638v96h-638v-96zM257 948h876v96h-876v-96zM257 1240h876v96h-876v-96zM257 1534h876v96h-876v-96zM287 354h1026q36 0 61 25t25 61v1114h2 q36 0 61 -25t25 -61v-1114q0 -36 -25 -61t-61 -25h-1028q-36 0 -61 25t-25 61z" />
<glyph unicode="e" horiz-adv-x="1504" d="M21 389q0 11 3 25l36 190q10 48 42 58q7 2 14 2q26 0 54 -28l170 -170q28 -28 28 -54q0 -7 -2 -14q-10 -32 -58 -42l-190 -38q-11 -2 -22 -2q-35 0 -55 21q-20 20 -20 52zM194 832l752 752l342 -342l-752 -752l-140 138l488 488l-64 64l-488 -488zM1058 1696l50 48 q34 36 84 36t86 -36l170 -170q36 -36 36 -86t-36 -84l-48 -50z" />
<glyph unicode="f" horiz-adv-x="1793" d="M108 456v726v2v456q0 38 27 64t65 26h638q38 0 72 -25t44 -63l48 -164h-440q-58 0 -105 -39t-57 -95l-148 -818q50 8 87 44t47 86l2 12l120 656q4 18 20 31t34 13h1100q36 0 58 -26q16 -19 16 -44q0 -8 -2 -18l-150 -824q-6 -38 -38 -64t-70 -26h-1186h-90q-38 0 -65 27 t-27 63z" />
<glyph unicode="g" horiz-adv-x="1086" d="M50 1334q0 204 145 349t349 145t349 -145t145 -349q0 -58 -29 -145t-61 -147l-164 -314l-78 148q-24 64 -24 126q0 75 34 148l6 12q18 34 39 90t21 82q0 100 -70 169t-168 69t-168 -69t-70 -169q0 -58 28 -108l356 -682l-146 -276l-54 106l-380 726q-60 114 -60 234z" />
<glyph unicode="h" horiz-adv-x="1696" d="M58 1049q0 37 38 75l646 662q42 42 106 42t106 -42l646 -662q38 -37 38 -75q0 -15 -6 -29l2 -2h-2q-22 -50 -92 -50q-18 0 -31 -15t-13 -35v-500q0 -62 -44 -106t-106 -44h-200q14 36 14 72v546q0 80 -57 137t-137 57h-236q-80 0 -137 -57t-57 -137v-288q0 -28 19 -47 t46 -19t47 19t20 47v288q0 26 18 44t44 18h236q26 0 44 -18t18 -44v-546q0 -26 -18 -44t-44 -18h-668q-44 16 -71 54t-27 86v500q0 20 -13 35t-31 15q-70 0 -92 50h-2l2 2q-6 15 -6 29z" />
<glyph unicode="i" horiz-adv-x="1708" d="M74 1048q0 212 104 392t284 284t392 104t392 -104t284 -284t104 -392t-104 -392t-284 -284t-392 -104t-392 104t-284 284t-104 392zM584 1082h164l-78 -454q-2 -11 -2 -21q0 -36 22 -66q28 -39 74 -47q2 0 10 1t10 1v-4h38q82 0 148 43t102 113h-164l78 452q1 9 1 17 q0 38 -22 70q-27 39 -75 47h-8h-8v2h-40q-80 0 -147 -42t-103 -112zM794 1481q0 -42 25 -78q33 -47 90 -57q13 -2 26 -2q42 0 78 25q47 33 57 91l2 10q2 14 2 26q0 42 -26 76q-34 44 -90 54q-13 2 -25 2q-43 0 -80 -28q-47 -36 -57 -93q-2 -13 -2 -26z" />
<glyph unicode="j" horiz-adv-x="1820" d="M54 1040q22 162 146 270t288 108q20 0 44 -2q56 128 173 204t257 76q194 0 332 -137t138 -331q0 -16 -2 -34h11q133 0 227 -94q98 -98 98 -236q0 -136 -96 -232t-232 -96h-442l94 92q82 84 82 202t-83 201t-201 83t-202 -84l-120 -120l-122 120q-80 82 -194 84h-6 q-110 0 -190 -74zM136 829q0 -45 30 -75l324 -324q32 -30 76 -30t76 30l322 324q32 30 32 75t-32 76t-76 31t-76 -30l-246 -248l-248 248q-30 30 -75 30t-76 -31t-31 -76z" />
<glyph unicode="k" horiz-adv-x="1330" d="M82 414v780q0 42 29 70t69 28h112v146q0 142 100 242t241 100t241 -100t100 -240l2 -2v-340q0 -40 -28 -67t-66 -27t-66 27t-28 67v92v248q0 64 -45 110t-109 46t-110 -46t-46 -110v-146h188v-194q0 -90 63 -153t152 -63t152 63t63 153v194h60q40 0 69 -28t29 -70v-780 q0 -40 -29 -69t-69 -29h-976q-40 0 -69 29t-29 69zM570 576h196v196h-196v-196z" />
<glyph unicode="l" horiz-adv-x="1626" d="M33 609q0 -141 100 -241t241 -100t241 100l218 218l-28 28q-50 48 -118 48t-118 -46l-102 -102q-38 -38 -93 -38t-95 38q-38 40 -38 95t38 93l386 386q38 38 93 39h3q53 0 92 -39l146 146q-100 100 -240 100q-142 0 -242 -100l-384 -384q-100 -100 -100 -241zM627 862 l146 146q39 -39 92 -39h3q55 1 93 39l386 384q38 40 38 95t-39 94t-93 39q-56 0 -94 -38l-102 -102q-50 -46 -118 -46t-118 48l-28 28l218 218q100 100 241 100t241 -100t100 -241t-100 -241l-384 -384q-100 -100 -241 -100t-241 100z" />
<glyph unicode="m" horiz-adv-x="1776" d="M108 396v974q0 42 28 70t70 28h1364q40 0 69 -28t29 -70v-974q0 -40 -29 -69t-69 -29h-1364q-42 0 -70 29t-28 69zM178 1190q0 -62 60 -92l312 -164l-244 -408q-10 -18 8 -32q6 -4 14 -4q10 0 18 8l334 370l132 -70q34 -18 76 -18t76 18l132 70l334 -370q6 -8 18 -8 q8 0 14 4q18 14 6 32l-242 408l312 164q60 30 60 92q0 28 -16 54l-694 -292l-696 292q-14 -26 -14 -54z" />
<glyph unicode="n" horiz-adv-x="1659" d="M61 1698q0 22 9 44q18 44 62 62l44 9q22 0 44 -9q44 -18 64 -62l318 -762q80 56 109 149q13 40 13 80q0 53 -22 105l-84 204l926 -148q40 -8 62 -41q17 -24 17 -51q-1 -10 -3 -20l-118 -510q-8 -32 -33 -52t-57 -20h-762h-1h-3h-84h-4h-2q-36 0 -65 19t-43 51l-378 908 q-9 22 -9 44zM466 421q0 57 40 98t98 41t98 -41t40 -98t-40 -98t-98 -41t-98 41t-40 98zM1250 421q0 57 40 98t97 41t98 -41t41 -98t-41 -98t-98 -41t-97 41t-40 98z" />
<glyph unicode="o" horiz-adv-x="1483" d="M108 494v1108q0 34 23 57t57 23h104l226 -226h-184v-816h816v184l226 -226v-104q0 -34 -23 -57t-57 -23h-1108q-34 0 -57 23t-23 57zM575 961q0 -80 57 -137l22 -22l496 494v-180q0 -46 33 -80t80 -34t80 34t33 80v424q0 58 -42 100t-100 42h-424q-48 0 -81 -33t-33 -80 t33 -80t81 -33h180l-364 -364q-51 -55 -51 -131z" />
<glyph unicode="p" horiz-adv-x="1738" d="M89 366v584q0 40 29 69t69 29h96v682q0 40 29 69t69 29h976q40 0 69 -29t29 -69v-534h-450q-78 0 -146 -41t-106 -107h798q40 0 69 -29t29 -69v-584q0 -40 -29 -69t-69 -29h-1364q-40 0 -69 29t-29 69zM479 1362q0 -20 14 -34t34 -14h390q20 0 35 14t15 34t-15 34t-35 14 h-390q-20 0 -34 -14t-14 -34zM479 1618q0 -20 14 -34t34 -14h684q20 0 34 14t14 34t-14 34t-34 14h-684q-20 0 -34 -14t-14 -34zM1311 807q0 -41 29 -69t69 -28t69 28t29 69t-29 69t-69 28t-69 -28t-29 -69z" />
<glyph unicode="q" horiz-adv-x="1770" d="M105 644q0 52 33 87t83 35h8q50 0 86 -36t36 -86t-36 -85t-86 -35t-87 36t-37 84zM105 1048q0 50 33 85t83 35h8q50 0 86 -35t36 -85t-36 -85t-86 -35t-87 35t-37 85zM105 1452q0 50 33 85t83 35h8q50 0 86 -36t36 -85t-36 -85t-86 -36t-87 36t-37 86zM493 644 q0 50 36 86t86 36h930q50 0 85 -36t35 -86t-35 -85t-85 -35h-930q-50 0 -86 35t-36 85zM493 1048q0 50 36 85t86 35h930q50 0 85 -35t35 -85t-35 -85t-85 -35h-930q-50 0 -86 35t-36 85zM493 1451q0 49 36 85t86 36h930q50 0 85 -36t35 -85t-35 -85t-85 -36h-930 q-50 0 -86 36t-36 85z" />
<glyph unicode="r" horiz-adv-x="1366" d="M46 1056.5q0 17.5 1 35.5q0 2 1 5t1 5q2 42 12 86l4 16q10 40 28 82q4 10 10 24q18 40 38 74q2 2 16 24q22 30 46 58q2 2 5 7t5 7t10 8q156 164 378 192l-38 38q-36 36 -36 86t35 86t86 36t85 -36l240 -238q0 -2 2 -2q34 -34 34 -86q0 -50 -34 -86h-2l-238 -240 q-36 -34 -87 -34t-86 35t-35 86t36 85l16 18q-148 -42 -230 -172l-2 -3q-2 -3 -2 -5q-16 -26 -28 -54q-4 -12 -4 -16q-10 -28 -16 -58l-1 -5q-1 -5 -1 -7q-6 -36 -6 -72q4 -86 40 -160l-178 -180q-94 142 -102 318l-1 3q-1 3 -1 5q-1 17 -1 34.5zM357 532q0 50 34 86h2 l238 240q36 34 86 34t86 -35t36 -86t-36 -85l-16 -18q148 40 228 170q2 2 5 7t3 7q12 22 24 46q6 18 8 26q4 10 10 36q10 46 10 90q0 88 -40 170l178 180q92 -140 104 -312q0 -2 1 -7t1 -7q1 -14 1 -28q0 -123 -49 -240q0 -4 -2 -9t-4 -7q-20 -44 -42 -80q-2 -4 -7 -10 t-5 -8q-26 -36 -52 -66q0 -2 -3 -5t-3 -5q-2 0 -4 -2l-2 -2q-156 -166 -382 -196l38 -38q36 -36 36 -86t-36 -86t-86 -36t-84 36l-240 238v1t-2 1q-34 34 -34 86z" />
<glyph unicode="s" horiz-adv-x="1518" d="M28 1205q0 4 1 7q8 24 66 24h170h36h270l110 342l34 110q18 56 44 56t44 -56l34 -110l110 -342h270h36h170q58 0 66 -24q1 -3 1 -7q0 -22 -41 -51l-202 -144l-186 -132l66 -196l86 -256q8 -26 8 -43q0 -20 -11 -28q-7 -4 -15 -4q-20 0 -52 25l-136 100l-442 330q0 2 -4 2 q-12 -42 -12 -84q0 -25 4 -51q12 -69 56 -125l-234 -172q-32 -25 -52 -25q-9 0 -15 4q-11 8 -11 28q0 17 8 43l98 292l54 160l-186 132l-202 144q-41 29 -41 51z" />
<glyph unicode="t" horiz-adv-x="1709" d="M87 746v108v878q0 40 29 69t69 29h1364q40 0 69 -29t29 -69v-854v-132q0 -40 -29 -69t-69 -29h-596l-338 -338q-45 -45 -79 -45q-10 0 -19 4q-40 17 -40 97v572q-86 -32 -141 -107t-55 -167v-16h-96q-40 0 -69 29t-29 69zM281 1256h852v98h-852v-98zM281 1450h1172v98 h-1172v-98z" />
<glyph unicode="u" horiz-adv-x="1666" d="M52 436l4 13q4 13 10 37t12 52l96 354q10 44 49 78t83 40h366v64q-96 66 -126 230q-14 12 -24 30q-21 46 -21 83q0 39 23 69q4 33 4 62q0 46 -10 78q-3 9 -3 19q0 34 34 67q43 42 133 54q8 6 30 16t73 23q34 9 67 9q15 0 30 -2q54 -4 134 -25q73 -19 98 -19h4h1 q23 0 27 -90q1 -16 1 -33q0 -76 -15 -151q24 -26 29 -64q1 -10 1 -20q0 -26 -10 -50q-16 -32 -32 -52q-30 -168 -128 -234v-64h366q44 -6 83 -40t49 -78l96 -354q6 -26 13 -52t10 -38l3 -12l-94 -50l-52 -22q-54 -22 -195 -49t-317 -33l12 56l-116 450l84 114l-24 34 l-78 -36l-76 36l-26 -34l84 -114l-116 -450l12 -56q-176 6 -322 35t-185 44t-57 25q-52 26 -94 50z" />
<glyph unicode="v" horiz-adv-x="1775" d="M66 1048l6 14q86 240 312 388t504 148t504 -148t312 -388l6 -14l-6 -14q-86 -240 -312 -388t-504 -148t-504 148t-312 388zM310 1048q78 -150 234 -238t344 -88t344 88t234 238q-78 150 -234 238t-344 88t-344 -88t-234 -238zM568 1048q0 132 94 226t226 94q52 0 106 -20 q-66 -68 -80 -162q-4 -24 -4 -48q0 -67 30 -126l4 2l210 210q54 -80 54 -176q0 -132 -94 -226t-226 -94t-226 94t-94 226z" />
<glyph unicode="w" horiz-adv-x="1550" d="M108 366h94h34h344q28 0 49 20t21 49t-21 49t-49 20h-236l314 314q20 20 20 48t-20 49t-49 21t-49 -20l-314 -314v234q0 30 -20 50t-49 20t-49 -20t-20 -50v-344v-126zM108 1260v344v126h128h344q28 0 49 -20t21 -49t-21 -49t-49 -20h-236l260 -258q20 -20 20 -49 t-20 -49t-49 -20t-49 20l-260 260v-236q0 -30 -20 -50t-48 -20t-49 20t-21 50zM922 1250q0 -28 21 -49t49 -21t48 20l298 298v-238q0 -30 20 -50t49 -20t49 20t20 50v344v32v94h-128h-344q-28 0 -48 -20t-20 -49t20 -49t48 -20h234l-294 -294q-22 -20 -22 -48zM936 435 q0 -29 20 -49t48 -20h344h34h94v94v32v344q0 30 -20 50t-49 20t-49 -20t-20 -50v-236l-280 280q-20 20 -49 20t-49 -20t-20 -49t20 -49l278 -278h-234q-28 0 -48 -20t-20 -49z" />
<glyph unicode="x" horiz-adv-x="1669" d="M103 489q0 71 50 121l438 438l-438 438q-50 50 -50 121t51 122t122 51t121 -50l582 -582q56 68 65 157q2 17 2 34q0 70 -31 131l258 260q50 50 121 50t122 -51t51 -122t-50 -121l-438 -438l438 -438q50 -50 50 -121t-51 -122t-122 -51t-121 52l-438 436l-438 -436 q-50 -52 -121 -52t-122 51t-51 122z" />
<glyph unicode="y" horiz-adv-x="1676" d="M53 482q0 -60 42 -102t100 -42h118v44q0 100 51 185t137 133v500h-306q-58 0 -100 -42t-42 -100v-576zM191 969q0 41 29 71t71 30t71 -30t29 -71t-29 -71t-71 -30t-71 30t-29 71zM599 606v412q0 112 82 190v2q92 80 116 196l80 352l94 -22q92 -20 142 -99q36 -56 36 -119 q0 -26 -6 -52l-40 -182l294 2q108 0 171 -77q46 -56 46 -127q0 -27 -7 -56l-88 -428q-24 -108 -118 -184t-202 -76h-334q-110 2 -188 80t-78 188z" />
<glyph unicode="z" horiz-adv-x="1978" d="M82 482q0 -58 42 -101t100 -43h116v44q0 100 52 185t138 133v502h-306q-58 0 -100 -42t-42 -102v-576zM218 970q0 42 30 71t71 29t71 -29t30 -71t-30 -71t-71 -29t-71 29t-30 71zM628 606v86v328v84q0 134 95 229t229 95h6q8 2 10 2l54 -2h36h5h5h210q22 0 40 -18 q16 -16 16 -40v-84h412q72 0 124 -52t52 -125t-52 -125t-124 -52h-128l-70 -334q-24 -106 -118 -183t-202 -77l-334 2q-110 0 -188 78t-78 188z" />
<glyph unicode="&#xad;" horiz-adv-x="1566" d="M101 1048q0 58 41 99t97 41h1088q58 0 98 -41t40 -99t-41 -99t-97 -41h-1088q-56 0 -97 41t-41 99z" />
<glyph unicode="&#x2000;" horiz-adv-x="963" />
<glyph unicode="&#x2001;" horiz-adv-x="1926" />
<glyph unicode="&#x2002;" horiz-adv-x="963" />
<glyph unicode="&#x2003;" horiz-adv-x="1926" />
<glyph unicode="&#x2004;" horiz-adv-x="642" />
<glyph unicode="&#x2005;" horiz-adv-x="481" />
<glyph unicode="&#x2006;" horiz-adv-x="321" />
<glyph unicode="&#x2007;" horiz-adv-x="321" />
<glyph unicode="&#x2008;" horiz-adv-x="240" />
<glyph unicode="&#x2009;" horiz-adv-x="385" />
<glyph unicode="&#x200a;" horiz-adv-x="107" />
<glyph unicode="&#x2010;" d="M121 1048q0 58 41 99t97 41h1088q58 0 98 -41t40 -99t-41 -99t-97 -41h-1088q-56 0 -97 41t-41 99z" />
<glyph unicode="&#x2011;" d="M121 1048q0 58 41 99t97 41h1088q58 0 98 -41t40 -99t-41 -99t-97 -41h-1088q-56 0 -97 41t-41 99z" />
<glyph unicode="&#x2012;" d="M121 1048q0 58 41 99t97 41h1088q58 0 98 -41t40 -99t-41 -99t-97 -41h-1088q-56 0 -97 41t-41 99z" />
<glyph unicode="&#x2013;" horiz-adv-x="1226" d="M101 1048q0 58 31 99t73 41h816q44 0 74 -41t30 -99t-31 -99t-73 -41h-816q-42 0 -73 41t-31 99z" />
<glyph unicode="&#x2014;" horiz-adv-x="2250" d="M101 1048q0 58 61.5 99t145.5 41h1634q87 0 147 -41t60 -99t-61.5 -99t-145.5 -41h-1634q-84 0 -145.5 41t-61.5 99z" />
<glyph unicode="&#x202f;" horiz-adv-x="385" />
<glyph unicode="&#x205f;" horiz-adv-x="481" />
<glyph unicode="&#x25fc;" horiz-adv-x="1780" d="M0 0v1780h1780v-1780h-1780z" />
</font>
</defs>
</svg>
